<svg width="31" height="27" viewBox="0 0 31 27" fill="none" xmlns="http://www.w3.org/2000/svg">
<path d="M14.375 2.7993C12.1018 1.34419 9.39869 0.5 6.5 0.5C4.79266 0.5 3.15134 0.793032 1.6251 1.33248C1.17556 1.49137 0.875 1.91638 0.875 2.39318V23.7682C0.875 24.1334 1.05227 24.4758 1.35044 24.6867C1.64861 24.8976 2.03058 24.9506 2.3749 24.8289C3.66367 24.3734 5.05162 24.125 6.5 24.125C9.49252 24.125 12.2349 25.1859 14.375 26.9536V2.7993Z" fill="currentColor"/>
<path d="M16.625 26.9536C18.7651 25.1859 21.5075 24.125 24.5 24.125C25.9484 24.125 27.3363 24.3734 28.6251 24.8289C28.9694 24.9506 29.3514 24.8976 29.6496 24.6867C29.9477 24.4758 30.125 24.1334 30.125 23.7682V2.39318C30.125 1.91638 29.8244 1.49137 29.3749 1.33248C27.8487 0.793032 26.2073 0.5 24.5 0.5C21.6013 0.5 18.8982 1.34419 16.625 2.7993V26.9536Z" fill="currentColor"/>
</svg>
