<svg width="33" height="34" viewBox="0 0 33 34" fill="none" xmlns="http://www.w3.org/2000/svg">
<path fill-rule="evenodd" clip-rule="evenodd" d="M16.5 0.75C7.52537 0.75 0.25 8.02537 0.25 17C0.25 25.9746 7.52537 33.25 16.5 33.25C25.4746 33.25 32.75 25.9746 32.75 17C32.75 8.02537 25.4746 0.75 16.5 0.75ZM17.75 7C17.75 6.30964 17.1904 5.75 16.5 5.75C15.8096 5.75 15.25 6.30964 15.25 7V17C15.25 17.6904 15.8096 18.25 16.5 18.25H24C24.6904 18.25 25.25 17.6904 25.25 17C25.25 16.3096 24.6904 15.75 24 15.75H17.75V7Z" fill="currentColor"/>
</svg>
